# xmcd
#
# Track frame offsets:
#	180
#	16597
#	33053
#	49533
#	54263
#	56753
#	57713
#	74778
#	91937
#	108882
#	113674
#	116163
#	117374
#	135301
#	153225
#	170867
#	175632
#	178169
#	179362
#	195736
#	212118
#	228458
#	233198
#	235730
#	236682
#	253134
#	269586
#	274314
#	276746
#	277901
#	293363
#	308720
#	313372
#	315898
#
# Disc length: 4230 seconds
#
# Revision: 0
# Processed by: cddbd v1.5.1PL0 Copyright (c) Steve Scherf et al.
# Submitted via: dBpowerAMP V4.0
#
DISCID=f2108422
DTITLE=Gene Michael Productions - Country I
DYEAR=1994
DGENRE=Country
TTITLE0=Line Dancer - Full Production Theme
TTITLE1=Line Dancer - Theme with no lead
TTITLE2=Line Dancer - Guitar Mix
TTITLE3=Line Dancer - Broadcast 60
TTITLE4=Line Dancer - Broadcast 30
TTITLE5=Line Dancer - Tag
TTITLE6=Old Country - Full Production Theme
TTITLE7=Old Country - Theme with no lead
TTITLE8=Old Country - Guitar/Piano Mix
TTITLE9=Old Country - Broadcast 60
TTITLE10=Old Country - Broadcast 30
TTITLE11=Old Country - Tag
TTITLE12=Country 101 - Full Production Theme
TTITLE13=Country 101 - Theme with no lead
TTITLE14=Country 101 - Guitar Mix
TTITLE15=Country 101 - Broadcast 60
TTITLE16=Country 101 - Broadcast 30
TTITLE17=Country 101 - Tag
TTITLE18=Country Blues - Full Prodution Theme
TTITLE19=Country Blues - Theme with no lead
TTITLE20=Country Blues - Harmonica/Piano Mix
TTITLE21=Country Blues - Broadcast 60
TTITLE22=Country Blues - Broadcast 30
TTITLE23=Country Blues - Tag
TTITLE24=Fiddlin' Fancy - Full Production Theme
TTITLE25=Fiddlin' Fancy - Theme with no lead
TTITLE26=Fiddlin' Fancy - Broadcast 60
TTITLE27=Fiddlin' Fancy - Broadcast 30
TTITLE28=Fiddlin' Fancy - Tag
TTITLE29=The American Medley - Full Production Theme
TTITLE30=The American Medley - Fiddle and drum
TTITLE31=The American Medley - Broadcast 60
TTITLE32=The American Medley - Broadcast 30
TTITLE33=The American Medley - Tag
EXTD=
EXTT0=
EXTT1=
EXTT2=
EXTT3=
EXTT4=
EXTT5=
EXTT6=
EXTT7=
EXTT8=
EXTT9=
EXTT10=
EXTT11=
EXTT12=
EXTT13=
EXTT14=
EXTT15=
EXTT16=
EXTT17=
EXTT18=
EXTT19=
EXTT20=
EXTT21=
EXTT22=
EXTT23=
EXTT24=
EXTT25=
EXTT26=
EXTT27=
EXTT28=
EXTT29=
EXTT30=
EXTT31=
EXTT32=
EXTT33=
PLAYORDER=
